HIERARCHY
ROOT root
{
	OFFSET 0.000000 0.000000 0.000000
	CHANNELS 6 Xposition Yposition Zposition Zrotation Yrotation Xrotation
	JOINT lhip
	{
		OFFSET 0.058581 -0.082280 -0.017664
		CHANNELS 3 Zrotation Yrotation Xrotation
		JOINT lknee
		{
			OFFSET 0.043451 -0.386469 0.008037
			CHANNELS 3 Zrotation Yrotation Xrotation
			JOINT lankle
			{
				OFFSET -0.014790 -0.426874 -0.037428
				CHANNELS 3 Zrotation Yrotation Xrotation
				JOINT ltoe
				{
					OFFSET 0.041054 -0.060286 0.122042
					CHANNELS 3 Zrotation Yrotation Xrotation
					End Site
					{
						OFFSET 0.000000 0.000000 0.000000
					}
				}
			}
		}
	}
	JOINT rhip
	{
		OFFSET -0.060310 -0.090513 -0.013543
		CHANNELS 3 Zrotation Yrotation Xrotation
		JOINT rknee
		{
			OFFSET -0.043257 -0.383688 -0.004843
			CHANNELS 3 Zrotation Yrotation Xrotation
			JOINT rankle
			{
				OFFSET 0.019056 -0.420046 -0.034562
				CHANNELS 3 Zrotation Yrotation Xrotation
				JOINT rtoe
				{
					OFFSET -0.034840 -0.062106 0.130323
					CHANNELS 3 Zrotation Yrotation Xrotation
					End Site
					{
						OFFSET 0.000000 0.000000 0.000000
					}
				}
			}
		}
	}
	JOINT lowerback
	{
		OFFSET 0.004439 0.124404 -0.038385
		CHANNELS 3 Zrotation Yrotation Xrotation
		JOINT upperback
		{
			OFFSET 0.004488 0.137956 0.026820
			CHANNELS 3 Zrotation Yrotation Xrotation
			JOINT chest
			{
				OFFSET -0.002265 0.056032 0.002855
				CHANNELS 3 Zrotation Yrotation Xrotation
				JOINT lowerneck
				{
					OFFSET -0.013390 0.211636 -0.033468
					CHANNELS 3 Zrotation Yrotation Xrotation
					JOINT upperneck
					{
						OFFSET 0.010113 0.088937 0.050410
						CHANNELS 3 Zrotation Yrotation Xrotation
						End Site
						{
							OFFSET 0.000000 0.000000 0.000000
						}
					}
				}
				JOINT lclavicle
				{
					OFFSET 0.071702 0.114000 -0.018898
					CHANNELS 3 Zrotation Yrotation Xrotation
					JOINT lshoulder
					{
						OFFSET 0.122921 0.045205 -0.019046
						CHANNELS 3 Zrotation Yrotation Xrotation
						JOINT lelbow
						{
							OFFSET 0.255332 -0.015649 -0.022946
							CHANNELS 3 Zrotation Yrotation Xrotation
							JOINT lwrist
							{
								OFFSET 0.265709 0.012698 -0.007375
								CHANNELS 3 Zrotation Yrotation Xrotation
								End Site
								{
									OFFSET 0.000000 0.000000 0.000000
								}
							}
						}
					}
				}
				JOINT rclavicle
				{
					OFFSET -0.082954 0.112472 -0.023707
					CHANNELS 3 Zrotation Yrotation Xrotation
					JOINT rshoulder
					{
						OFFSET -0.113228 0.046853 -0.008472
						CHANNELS 3 Zrotation Yrotation Xrotation
						JOINT relbow
						{
							OFFSET -0.260127 -0.014369 -0.031269
							CHANNELS 3 Zrotation Yrotation Xrotation
							JOINT rwrist
							{
								OFFSET -0.269108 0.006794 -0.006027
								CHANNELS 3 Zrotation Yrotation Xrotation
								End Site
								{
									OFFSET 0.000000 0.000000 0.000000
								}
							}
						}
					}
				}
			}
		}
	}
}
MOTION
Frames: 10
Frame Time: 0.033333
0.110914 0.170093 0.988795 -179.388051 4.278238 95.935029 14.100319 5.261161 -15.552012 0.200399 0.506141 11.549453 -4.604444 8.976459 -4.690084 0.000000 -0.000000 0.000000 2.232824 1.896390 -20.195819 2.823603 0.721210 20.171286 4.497454 -6.538703 -7.620540 0.000000 -0.000000 0.000000 -2.340629 -1.335663 23.239382 6.425807 -2.533773 -4.760954 8.242648 -3.313785 -4.155047 -4.647929 8.039770 -14.783874 -1.484079 11.853806 -12.043467 -9.132436 -20.247911 0.758289 -47.576163 -28.210974 17.641830 -29.486779 -61.238924 54.946589 -6.416812 -20.633803 -23.930481 1.749613 10.237269 2.150038 27.557506 9.275981 6.771202 6.511045 69.049880 22.665100 4.326096 19.835089 -35.541351 
0.109452 0.171562 0.987743 -179.052896 4.910415 96.001295 14.925980 5.337656 -16.053696 -0.291846 0.333619 12.344742 -4.400874 9.197131 -4.999515 0.000000 -0.000000 0.000000 2.798251 2.088762 -20.237885 2.847247 0.790127 20.368825 4.368191 -7.073753 -7.758938 0.000000 -0.000000 0.000000 -3.279550 -0.653543 22.675524 6.217693 -1.786285 -4.823290 8.241789 -3.148411 -3.864542 -3.845434 6.874638 -14.586078 -0.457091 10.733597 -11.438574 -9.928881 -18.609682 0.943740 -48.110052 -27.019461 17.214795 -23.755092 -58.127838 48.498457 -3.209968 -17.963059 -24.256591 2.537783 9.418678 2.330900 28.244571 9.070759 7.406586 10.027384 65.388066 26.607172 2.203024 17.648477 -34.790346 
0.106630 0.173420 0.986698 -178.371884 5.351329 95.925527 15.376281 4.980201 -16.386828 -0.603346 -0.288962 13.108157 -4.323958 9.406121 -5.518449 0.000000 -0.000000 0.000000 3.063789 1.869108 -19.945892 2.969799 0.778076 20.389516 4.214567 -7.591448 -7.948295 0.000000 -0.000000 0.000000 -3.765927 0.022374 22.542239 5.748155 -1.258919 -4.890075 8.121205 -3.258039 -3.718136 -3.209029 5.690837 -14.294603 0.504621 9.953268 -11.557035 -10.968336 -17.011379 1.250533 -47.221345 -24.937284 16.164000 -20.059289 -57.418487 42.576080 -1.835904 -15.871021 -25.811136 3.096043 8.581242 2.577167 28.626320 7.808654 8.325228 13.320022 64.469436 29.583352 1.771356 16.421606 -35.553577 
0.103278 0.175872 0.985929 -177.415257 5.770099 95.905014 15.915180 4.427149 -16.895145 -1.156083 -0.461327 13.924246 -4.473228 9.695671 -5.850181 0.000000 -0.000000 0.000000 3.229481 1.700173 -19.541936 3.092189 0.655725 20.194615 4.144003 -8.375934 -8.100969 0.000000 -0.000000 0.000000 -4.559311 0.666266 22.538673 5.151459 -0.594951 -4.698850 7.930195 -3.424479 -3.597048 -2.061736 4.439860 -14.500840 1.461276 9.140435 -11.674775 -12.097093 -13.538989 1.948204 -44.493048 -22.203471 13.799133 -19.244906 -59.806680 38.111477 -3.463028 -17.450192 -30.899373 3.612666 6.808064 2.860896 28.711147 6.001958 9.784917 18.293571 66.057343 33.084023 2.954508 17.642986 -39.267185 
0.100531 0.177342 0.985689 -176.676505 6.029981 95.999819 16.139797 3.871063 -17.308508 -1.348413 -0.699526 14.388328 -4.593156 9.813701 -6.100184 0.000000 -0.000000 0.000000 3.229160 1.504768 -19.210030 3.264249 0.516066 19.761694 4.222014 -8.865235 -8.140656 0.000000 -0.000000 0.000000 -4.850190 0.900313 22.574955 4.905802 -0.321295 -4.667549 7.721046 -3.447538 -3.487553 -1.620163 3.716393 -14.675636 2.075098 8.868000 -11.525056 -12.389634 -11.447743 2.356805 -42.318070 -20.572663 12.516928 -19.951973 -61.798386 36.202902 -4.053398 -20.039942 -35.803864 3.764760 5.651753 3.038078 28.409978 4.737296 10.685194 22.098320 68.012873 35.994938 5.031924 19.952601 -41.639689 
0.096204 0.179713 0.985560 -175.594289 6.316265 96.099744 16.195287 3.198506 -17.728548 -1.449369 -1.198846 14.777222 -4.785248 10.016904 -6.314810 0.000000 -0.000000 0.000000 3.162639 1.294859 -18.598384 3.369637 0.294672 19.013878 4.376184 -9.435341 -8.125925 0.000000 -0.000000 0.000000 -5.100025 1.008179 22.545937 4.696802 -0.160148 -4.515017 7.413161 -3.323750 -3.275933 -1.322535 2.912605 -14.509500 2.657754 8.347088 -11.647664 -12.303577 -8.677328 2.696969 -39.368034 -18.331939 11.167160 -22.084044 -64.363851 35.197553 -4.663329 -23.413714 -42.619596 3.787452 4.062526 3.020102 27.643020 3.274680 11.831000 28.956287 71.151404 42.198445 7.818212 23.104941 -44.626869 
0.091135 0.181809 0.985663 -174.187223 6.377773 96.217549 15.864754 2.442762 -18.226236 -1.420829 -1.974396 15.091023 -5.061324 10.197227 -6.415175 0.000000 -0.000000 0.000000 2.969865 0.943343 -18.058674 3.241709 -0.006908 18.415221 4.591733 -10.198116 -8.120660 0.000000 -0.000000 0.000000 -5.249488 1.085028 22.702336 4.586272 -0.324435 -4.622425 7.238613 -3.308565 -2.833891 -1.419148 2.224770 -13.971649 3.108119 7.787962 -12.006362 -11.203436 -6.561557 3.099194 -36.870512 -15.631990 10.175452 -24.949712 -66.804053 35.814670 -4.053256 -26.399108 -49.044616 2.868363 2.657336 2.866689 27.145320 1.907310 12.740175 40.185253 74.741943 53.833894 9.444132 25.707766 -46.945492 
0.085560 0.184151 0.986111 -172.743378 6.298096 96.403432 15.541049 1.677006 -18.629174 -1.661514 -2.560286 15.112666 -5.241967 10.295535 -6.457635 0.000000 -0.000000 0.000000 2.657248 0.445270 -17.696675 3.078932 -0.262433 18.044467 4.766401 -10.838412 -8.230963 0.000000 -0.000000 0.000000 -5.418562 1.336769 22.467170 4.683700 -0.605003 -4.372887 7.177179 -3.399922 -2.476028 -1.641484 1.848951 -13.268115 3.228653 7.410027 -12.283734 -10.202631 -4.899494 3.593371 -34.366053 -12.647131 9.425077 -28.173121 -68.968862 36.245824 -4.401039 -28.872191 -52.881371 2.059299 1.363400 2.605195 26.308848 0.816946 13.289696 55.342646 77.964037 69.497473 12.043152 27.958563 -46.120146 
0.080000 0.186173 0.987238 -171.589000 6.157811 96.559141 15.089361 1.392198 -18.633030 -1.844359 -3.088245 14.537873 -5.413270 10.135716 -6.286516 0.000000 -0.000000 0.000000 2.338022 0.264258 -17.311701 2.762239 -0.366212 17.608046 5.112468 -11.582600 -8.221111 0.000000 -0.000000 0.000000 -5.627297 1.749209 22.201808 4.836816 -0.550407 -4.099025 7.080523 -3.448999 -2.229804 -1.690003 1.678842 -12.628719 3.212091 6.770769 -12.289571 -9.345270 -3.461071 3.935182 -31.865602 -10.318153 8.533928 -31.464252 -69.449031 38.319896 -5.082336 -32.279072 -54.419710 1.378772 0.176827 2.188818 25.781040 -0.147848 13.507370 73.932810 80.184518 88.621353 13.949598 30.175439 -45.812436 
0.071004 0.188929 0.988689 -169.865876 5.812595 96.698910 14.014819 1.059540 -18.720422 -1.900987 -4.136366 14.031403 -5.314266 9.864781 -5.986331 0.000000 -0.000000 0.000000 1.538350 -0.426947 -16.526774 2.566957 -0.775941 16.835084 5.370684 -12.146602 -8.036513 0.000000 -0.000000 0.000000 -5.212805 2.003856 21.811182 4.748503 -0.685049 -3.914004 6.595290 -3.272323 -1.884610 -1.859156 1.128080 -11.138220 3.470692 5.747668 -12.371878 -8.375391 -2.076916 4.174997 -29.782075 -8.265630 7.774507 -32.946587 -68.675772 39.222814 -5.618229 -33.784411 -54.539720 0.863400 -0.787325 1.933252 26.013736 -1.343388 13.539310 96.563764 81.960713 111.065449 13.533492 31.181330 -47.344857 
